<svg xmlns="http://www.w3.org/2000/svg" width="60" height="60" viewBox="0 0 60 60" fill="none">
  <path d="M30 10C32.7614 10 35 7.76142 35 5C35 2.23858 32.7614 0 30 0C27.2386 0 25 2.23858 25 5C25 7.76142 27.2386 10 30 10Z" fill="#1A56DB"/>
  <path d="M15 30C17.7614 30 20 27.7614 20 25C20 22.2386 17.7614 20 15 20C12.2386 20 10 22.2386 10 25C10 27.7614 12.2386 30 15 30Z" fill="#1A56DB"/>
  <path d="M45 30C47.7614 30 50 27.7614 50 25C50 22.2386 47.7614 20 45 20C42.2386 20 40 22.2386 40 25C40 27.7614 42.2386 30 45 30Z" fill="#1A56DB"/>
  <path d="M18 42.5C20.7614 42.5 23 40.2614 23 37.5C23 34.7386 20.7614 32.5 18 32.5C15.2386 32.5 13 34.7386 13 37.5C13 40.2614 15.2386 42.5 18 42.5Z" fill="#1A56DB"/>
  <path d="M42 42.5C44.7614 42.5 47 40.2614 47 37.5C47 34.7386 44.7614 32.5 42 32.5C39.2386 32.5 37 34.7386 37 37.5C37 40.2614 39.2386 42.5 42 42.5Z" fill="#1A56DB"/>
  <path d="M30 55C32.7614 55 35 52.7614 35 50C35 47.2386 32.7614 45 30 45C27.2386 45 25 47.2386 25 50C25 52.7614 27.2386 55 30 55Z" fill="#1A56DB"/>
  <path d="M30 15V37.5" stroke="#1A56DB" stroke-width="2.5" stroke-linecap="round"/>
  <path d="M18 37.5L30 10" stroke="#1A56DB" stroke-width="2.5" stroke-linecap="round"/>
  <path d="M42 37.5L30 10" stroke="#1A56DB" stroke-width="2.5" stroke-linecap="round"/>
  <path d="M30 50L18 37.5" stroke="#1A56DB" stroke-width="2.5" stroke-linecap="round"/>
  <path d="M30 50L42 37.5" stroke="#1A56DB" stroke-width="2.5" stroke-linecap="round"/>
  <path d="M15 25H45" stroke="#1A56DB" stroke-width="2.5" stroke-linecap="round"/>
</svg> 